<?xml version="1.0" standalone="no"?><!DOCTYPE svg PUBLIC "-//W3C//DTD SVG 1.1//EN" "http://www.w3.org/Graphics/SVG/1.1/DTD/svg11.dtd"><svg t="1755889441590" class="icon" viewBox="0 0 1024 1024" version="1.1" xmlns="http://www.w3.org/2000/svg" p-id="798" xmlns:xlink="http://www.w3.org/1999/xlink" width="200" height="200"><path d="M263.125333 186.325333L512 42.666667l248.874667 143.658666-91.477334 53.077334L512 148.821333 354.645333 239.36 263.125333 186.325333z m497.749334 181.162667l-91.477334-53.077333L512 404.992 354.645333 314.453333 263.125333 367.488V473.6l157.397334 90.581333v181.162667L512 798.421333l91.52-53.077333v-181.162667l157.354667-90.581333V367.488z m0 287.317333v-106.154666l-91.477334 53.077333v106.112l91.477334-53.034667z m64.981333 37.504l-157.397333 90.581334v106.112L917.333333 745.386667v-287.317334l-91.52 53.077334v181.162666zM734.293333 276.906667l91.52 53.077333v106.112L917.333333 383.018667V276.906667l-91.52-53.077334-91.477333 53.077334zM420.522667 821.333333v106.112L512 980.522667l91.52-53.077334v-106.154666L512 874.368 420.522667 821.333333z m-157.397334-166.528l91.52 53.034667v-106.112l-91.52-53.077333v106.154666zM420.522667 276.906667L512 329.984l91.52-53.077333L512 223.829333 420.522667 276.906667zM198.144 329.984L289.706667 276.906667 198.144 223.829333 106.666667 276.906667v106.112l91.477333 53.077333V329.984z m0 181.162667L106.666667 458.069333v287.274667l248.874666 143.658667V782.933333l-157.397333-90.581333V511.146667z" fill="#000000" p-id="799"></path></svg>